<?xml version='1.0' encoding='UTF-8'?>
<!DOCTYPE svg PUBLIC "-//W3C//DTD SVG 1.0//EN" "http://www.w3.org/TR/2001/REC-SVG-20010904/DTD/svg10.dtd">
<svg viewBox="0 0 832 360" xmlns="http://www.w3.org/2000/svg" xmlns:inkspace="http://www.inkscape.org/namespaces/inkscape" xmlns:xlink="http://www.w3.org/1999/xlink">
  <defs id="defs_block">
    <filter height="1.504" id="filter_blur" inkspace:collect="always" width="1.1575" x="-0.07875" y="-0.252">
      <feGaussianBlur id="feGaussianBlur3780" inkspace:collect="always" stdDeviation="4.2" />
    </filter>
  </defs>
  <title>blockdiag</title>
  <desc />
  <rect fill="rgb(0,0,0)" height="40" stroke="rgb(0,0,0)" style="filter:url(#filter_blur);opacity:0.7;fill-opacity:1" width="128" x="67" y="46" />
  <rect fill="rgb(0,0,0)" height="40" stroke="rgb(0,0,0)" style="filter:url(#filter_blur);opacity:0.7;fill-opacity:1" width="128" x="67" y="126" />
  <rect fill="rgb(0,0,0)" height="40" stroke="rgb(0,0,0)" style="filter:url(#filter_blur);opacity:0.7;fill-opacity:1" width="128" x="67" y="206" />
  <rect fill="rgb(0,0,0)" height="40" stroke="rgb(0,0,0)" style="filter:url(#filter_blur);opacity:0.7;fill-opacity:1" width="128" x="259" y="206" />
  <rect fill="rgb(0,0,0)" height="40" stroke="rgb(0,0,0)" style="filter:url(#filter_blur);opacity:0.7;fill-opacity:1" width="128" x="451" y="206" />
  <rect fill="rgb(0,0,0)" height="40" stroke="rgb(0,0,0)" style="filter:url(#filter_blur);opacity:0.7;fill-opacity:1" width="128" x="643" y="206" />
  <rect fill="rgb(0,0,0)" height="40" stroke="rgb(0,0,0)" style="filter:url(#filter_blur);opacity:0.7;fill-opacity:1" width="128" x="67" y="286" />
  <rect fill="rgb(0,0,0)" height="40" stroke="rgb(0,0,0)" style="filter:url(#filter_blur);opacity:0.7;fill-opacity:1" width="128" x="259" y="286" />
  <rect fill="rgb(0,0,0)" height="40" stroke="rgb(0,0,0)" style="filter:url(#filter_blur);opacity:0.7;fill-opacity:1" width="128" x="451" y="286" />
  <rect fill="rgb(255,255,255)" height="40" stroke="rgb(0,0,0)" width="128" x="64" y="40" />
  <text fill="rgb(0,0,0)" font-family="sans-serif" font-size="8" font-style="normal" font-weight="normal" text-anchor="middle" textLength="53" x="128" y="64">gspreadsheet</text>
  <rect fill="rgb(255,255,255)" height="40" stroke="rgb(0,0,0)" width="128" x="64" y="120" />
  <text fill="rgb(0,0,0)" font-family="sans-serif" font-size="8" font-style="normal" font-weight="normal" text-anchor="middle" textLength="71" x="128" y="144">teacher notebook</text>
  <rect fill="rgb(255,255,255)" height="40" stroke="rgb(0,0,0)" width="128" x="64" y="200" />
  <text fill="rgb(0,0,0)" font-family="sans-serif" font-size="8" font-style="normal" font-weight="normal" text-anchor="middle" textLength="22" x="128" y="224">host1</text>
  <rect fill="rgb(255,255,255)" height="40" stroke="rgb(0,0,0)" width="128" x="256" y="200" />
  <text fill="rgb(0,0,0)" font-family="sans-serif" font-size="8" font-style="normal" font-weight="normal" text-anchor="middle" textLength="22" x="320" y="224">host2</text>
  <rect fill="rgb(255,255,255)" height="40" stroke="rgb(0,0,0)" width="128" x="448" y="200" />
  <text fill="rgb(0,0,0)" font-family="sans-serif" font-size="8" font-style="normal" font-weight="normal" text-anchor="middle" textLength="22" x="512" y="224">host3</text>
  <rect fill="rgb(255,255,255)" height="40" stroke="rgb(0,0,0)" width="128" x="640" y="200" />
  <text fill="rgb(0,0,0)" font-family="sans-serif" font-size="8" font-style="normal" font-weight="normal" text-anchor="middle" textLength="22" x="704" y="224">hostn</text>
  <rect fill="rgb(255,255,255)" height="40" stroke="rgb(0,0,0)" width="128" x="64" y="280" />
  <text fill="rgb(0,0,0)" font-family="sans-serif" font-size="8" font-style="normal" font-weight="normal" text-anchor="middle" textLength="44" x="128" y="304">container1</text>
  <rect fill="rgb(255,255,255)" height="40" stroke="rgb(0,0,0)" width="128" x="256" y="280" />
  <text fill="rgb(0,0,0)" font-family="sans-serif" font-size="8" font-style="normal" font-weight="normal" text-anchor="middle" textLength="44" x="320" y="304">container2</text>
  <rect fill="rgb(255,255,255)" height="40" stroke="rgb(0,0,0)" width="128" x="448" y="280" />
  <text fill="rgb(0,0,0)" font-family="sans-serif" font-size="8" font-style="normal" font-weight="normal" text-anchor="middle" textLength="44" x="512" y="304">container3</text>
  <path d="M 128 80 L 128 112" fill="none" stroke="rgb(0,0,0)" />
  <polygon fill="rgb(0,0,0)" points="128,119 124,112 132,112 128,119" stroke="rgb(0,0,0)" />
  <path d="M 128 160 L 128 180" fill="none" stroke="rgb(0,0,0)" />
  <path d="M 128 180 L 320 180" fill="none" stroke="rgb(0,0,0)" />
  <path d="M 320 180 L 320 192" fill="none" stroke="rgb(0,0,0)" />
  <polygon fill="rgb(0,0,0)" points="320,199 316,192 324,192 320,199" stroke="rgb(0,0,0)" />
  <path d="M 128 160 L 128 180" fill="none" stroke="rgb(0,0,0)" />
  <path d="M 128 180 L 512 180" fill="none" stroke="rgb(0,0,0)" />
  <path d="M 512 180 L 512 192" fill="none" stroke="rgb(0,0,0)" />
  <polygon fill="rgb(0,0,0)" points="512,199 508,192 516,192 512,199" stroke="rgb(0,0,0)" />
  <path d="M 128 160 L 128 180" fill="none" stroke="rgb(0,0,0)" />
  <path d="M 128 180 L 704 180" fill="none" stroke="rgb(0,0,0)" />
  <path d="M 704 180 L 704 192" fill="none" stroke="rgb(0,0,0)" />
  <polygon fill="rgb(0,0,0)" points="704,199 700,192 708,192 704,199" stroke="rgb(0,0,0)" />
  <path d="M 128 160 L 128 192" fill="none" stroke="rgb(0,0,0)" />
  <polygon fill="rgb(0,0,0)" points="128,199 124,192 132,192 128,199" stroke="rgb(0,0,0)" />
  <path d="M 128 240 L 128 272" fill="none" stroke="rgb(0,0,0)" />
  <polygon fill="rgb(0,0,0)" points="128,279 124,272 132,272 128,279" stroke="rgb(0,0,0)" />
  <path d="M 128 240 L 128 260" fill="none" stroke="rgb(0,0,0)" />
  <path d="M 128 260 L 512 260" fill="none" stroke="rgb(0,0,0)" />
  <path d="M 512 260 L 512 272" fill="none" stroke="rgb(0,0,0)" />
  <polygon fill="rgb(0,0,0)" points="512,279 508,272 516,272 512,279" stroke="rgb(0,0,0)" />
  <path d="M 128 240 L 128 260" fill="none" stroke="rgb(0,0,0)" />
  <path d="M 128 260 L 320 260" fill="none" stroke="rgb(0,0,0)" />
  <path d="M 320 260 L 320 272" fill="none" stroke="rgb(0,0,0)" />
  <polygon fill="rgb(0,0,0)" points="320,279 316,272 324,272 320,279" stroke="rgb(0,0,0)" />
  <rect fill="white" height="12" stroke="rgb(0,0,0)" width="34" x="159" y="104" />
  <text fill="rgb(0,0,0)" font-family="sans-serif" font-size="8" font-style="normal" font-weight="normal" text-anchor="middle" textLength="18" x="176" y="114">wget</text>
  <rect fill="white" height="12" stroke="rgb(0,0,0)" width="38" x="157" y="184" />
  <text fill="rgb(0,0,0)" font-family="sans-serif" font-size="8" font-style="normal" font-weight="normal" text-anchor="middle" textLength="22" x="176" y="194">rsync</text>
  <rect fill="white" height="12" stroke="rgb(0,0,0)" width="60" x="146" y="264" />
  <text fill="rgb(0,0,0)" font-family="sans-serif" font-size="8" font-style="normal" font-weight="normal" text-anchor="middle" textLength="44" x="176" y="274">docker run</text>
</svg>
